<?xml version="1.0" encoding="UTF-8"?>
<svg xmlns="http://www.w3.org/2000/svg" version="1.1" viewBox="0 0 500 500">
  <!-- Generator: Adobe Illustrator 29.7.1, SVG Export Plug-In . SVG Version: 2.1.1 Build 8)  -->
  <g id="Layer_3">
    <rect width="500" height="500" fill="#f7f5f5"/>
  </g>
  <g id="Layer_1">
    <g>
      <path d="M381.71,375h-6.71v25c0-9.11,2.45-17.64,6.71-25Z" fill="#f7f5f5"/>
      <path d="M243.29,125c4.26,7.36,6.71,15.89,6.71,25v-25h-6.71Z" fill="#f7f5f5"/>
      <path d="M125,50h-25c0,27.61-22.39,50-50,50v-50h0C22.39,50,0,27.61,0,0v125h125V50Z" fill="#fff"/>
      <path d="M475,350c-55.23,0-100-44.77-100-100v125h6.71c8.65-14.94,24.79-25,43.29-25s34.65,10.06,43.29,25h31.71v-28.15c-7.99,2.06-16.37,3.15-25,3.15Z" fill="#fff"/>
      <path d="M50,100c27.61,0,50-22.39,50-50h-50v50Z" fill="#00aec5"/>
      <path d="M468.29,375c-8.65-14.94-24.79-25-43.29-25s-34.65,10.06-43.29,25c-4.26,7.36-6.71,15.89-6.71,25,0,27.61,22.39,50,50,50s50-22.39,50-50c0-9.11-2.45-17.64-6.71-25Z" fill="#00aec5"/>
      <path d="M450,450h-25v50h75c0-27.61-22.39-50-50-50Z" fill="#98efed"/>
      <path d="M275,0H0c0,27.61,22.39,50,50,50h225c11.24,0,21.61-3.71,29.97-9.97,4.25-14.63,11.11-28.15,20.03-40.03h-49.99Z" fill="#98efed"/>
      <path d="M375,0h-50.01c-8.92,11.88-15.77,25.4-20.03,40.03-3.23,11.1-4.97,22.83-4.97,34.97h125V0h-50Z" fill="#00aec5"/>
      <path d="M375,460.41v39.59h50v-50c-17.78,0-34.69,3.72-50,10.41Z" fill="#00aec5"/>
      <path d="M375,460.41c-19.91,8.7-37.12,22.43-50.01,39.59h50.01v-39.59Z" fill="#00aec5"/>
      <path d="M200.01,375c-20.89-15.7-46.86-25-75.01-25v150h50c0-9.11,2.45-17.64,6.71-25,8.65-14.94,24.79-25,43.29-25h22.5c-6.19-30.5-23.49-56.97-47.49-75Z" fill="#00aec5"/>
      <path d="M375,450h-150c-18.5,0-34.65,10.06-43.29,25-4.26,7.36-6.71,15.89-6.71,25h149.99c12.89-17.16,30.1-30.89,50.01-39.59,15.31-6.69,32.22-10.41,50-10.41h-50Z" fill="#98efed"/>
      <path d="M475,150v100h-100c0,55.23,44.77,100,100,100,8.63,0,17.01-1.09,25-3.15v-193.7c-7.99-2.06-16.37-3.15-25-3.15Z" fill="#98efed"/>
      <path d="M400,200h-75c-27.61,0-50,22.39-50,50h175c0-27.61-22.39-50-50-50Z" fill="#00aec5"/>
      <path d="M300,75v50h0v50c27.61,0,50-22.39,50-50s-22.39-50-50-50Z" fill="#00aec5"/>
      <path d="M275,325v50h0v50c27.61,0,50-22.39,50-50s-22.39-50-50-50Z" fill="#00aec5"/>
      <path d="M275,250h0s-25,0-25,0h-125c0,13.81,11.19,25,25,25h125c13.81,0,25-11.19,25-25h-25Z" fill="#98efed"/>
      <g>
        <path d="M50,316.14v-16.14h0v-50H0v96.85c19.66-5.06,36.97-15.95,50-30.71Z" fill="#98efed"/>
        <path d="M74.78,256.58c.14-2.18.22-4.37.22-6.58h-25c9.02,0,17.47,2.4,24.78,6.58Z" fill="#98efed"/>
        <path d="M50,200h11.62c-13.26-22.92-35.35-40.09-61.62-46.85v96.85c0-27.61,22.39-50,50-50Z" fill="#98efed"/>
      </g>
      <path d="M125,200H50c-27.61,0-50,22.39-50,50h175c0-27.61-22.39-50-50-50Z" fill="#00aec5"/>
      <path d="M74.78,256.58c-7.31-4.18-15.76-6.58-24.78-6.58v50h0v50c27.61,0,50-22.39,50-50,0-18.59-10.16-34.81-25.22-43.42Z" fill="#00aec5"/>
      <path d="M243.29,125c-8.65-14.94-24.79-25-43.29-25s-34.65,10.06-43.29,25c-4.26,7.36-6.71,15.89-6.71,25,0,27.61,22.39,50,50,50s50-22.39,50-50c0-9.11-2.45-17.64-6.71-25Z" fill="#00aec5"/>
    </g>
  </g>
  <g id="Layer_4">
    <g>
      <path d="M75,25h50V0H31.25c6.25,12.5,18.75,25,43.75,25Z" fill="#f8e100"/>
      <path d="M75,425H25v50s0,12.5,6.25,25h93.75v-25s0-50-50-50Z" fill="#f8e100"/>
      <path d="M75,375l-50,50c50,0,50-50,50-50Z" fill="#8cc541"/>
      <path d="M50,100L0,50c0,50,50,50,50,50Z" fill="#8cc541"/>
      <path d="M400,100v50h50s50,0,50-50v-50h-50s-50,0-50,50Z" fill="#f8e100"/>
      <path d="M375,375h-50v50s0,50,50,50h50v-50s0-50-50-50Z" fill="#f8e100"/>
      <path d="M375,325l-50,50c50,0,50-50,50-50Z" fill="#8cc541"/>
      <path d="M200,75v50h50c50,0,50-50,50-50V25h-50c-50,0-50,50-50,50Z" fill="#f8e100"/>
      <path d="M300,25L275,0h-18.75c6.25,12.5,18.75,25,43.75,25Z" fill="#8cc541"/>
      <path d="M256.25,500h18.75l-25-25s0,12.5,6.25,25Z" fill="#8cc541"/>
      <path d="M450,275v50h50v-100c-50,0-50,50-50,50Z" fill="#f8e100"/>
      <path d="M50,275v-50H0v100c50,0,50-50,50-50Z" fill="#f8e100"/>
      <path d="M50,225L0,175s0,50,50,50Z" fill="#8cc541"/>
      <circle cx="200" cy="325" r="75" fill="#f8e100"/>
      <path d="M156.07,71.97l-106.07,106.07c29.29,29.29,76.78,29.29,106.07,0,29.29-29.29,29.29-76.78,0-106.07Z" fill="#f8e100"/>
      <path d="M420.05,269.93l-90.1-119.93c-33.12,24.88-39.8,71.89-14.92,105.01s71.89,39.8,105.01,14.92Z" fill="#f8e100"/>
    </g>
  </g>
</svg>